<mxfile host="app.diagrams.net" agent="Mozilla/5.0 (Windows NT 10.0; Win64; x64) AppleWebKit/537.36 (KHTML, like Gecko) Chrome/128.0.0.0 Safari/537.36" version="24.7.14">
  <diagram name="Side-1" id="7-AlgWHPO1rGz2a1LxJr">
    <mxGraphModel dx="1050" dy="569" grid="1" gridSize="10" guides="1" tooltips="1" connect="1" arrows="1" fold="1" page="1" pageScale="1" pageWidth="1169" pageHeight="1654" math="0" shadow="0">
      <root>
        <mxCell id="0" />
        <mxCell id="1" parent="0" />
        <mxCell id="tGWyrXTvTJjovRNQNgG4-1" value="Chirp generator" style="rounded=0;whiteSpace=wrap;html=1;" vertex="1" parent="1">
          <mxGeometry x="250" y="290" width="120" height="60" as="geometry" />
        </mxCell>
        <mxCell id="tGWyrXTvTJjovRNQNgG4-18" style="edgeStyle=orthogonalEdgeStyle;rounded=0;orthogonalLoop=1;jettySize=auto;html=1;exitX=1;exitY=0.5;exitDx=0;exitDy=0;exitPerimeter=0;entryX=0;entryY=0.5;entryDx=0;entryDy=0;" edge="1" parent="1" source="tGWyrXTvTJjovRNQNgG4-3" target="tGWyrXTvTJjovRNQNgG4-17">
          <mxGeometry relative="1" as="geometry" />
        </mxCell>
        <mxCell id="tGWyrXTvTJjovRNQNgG4-3" value="" style="verticalLabelPosition=bottom;verticalAlign=top;html=1;shape=mxgraph.flowchart.or;" vertex="1" parent="1">
          <mxGeometry x="470" y="285" width="70" height="70" as="geometry" />
        </mxCell>
        <mxCell id="tGWyrXTvTJjovRNQNgG4-4" value="" style="endArrow=none;html=1;rounded=0;exitX=0.5;exitY=0;exitDx=0;exitDy=0;" edge="1" parent="1" source="tGWyrXTvTJjovRNQNgG4-1">
          <mxGeometry width="50" height="50" relative="1" as="geometry">
            <mxPoint x="320" y="200" as="sourcePoint" />
            <mxPoint x="310" y="200" as="targetPoint" />
          </mxGeometry>
        </mxCell>
        <mxCell id="tGWyrXTvTJjovRNQNgG4-5" value="" style="endArrow=none;html=1;rounded=0;" edge="1" parent="1">
          <mxGeometry width="50" height="50" relative="1" as="geometry">
            <mxPoint x="310" y="200" as="sourcePoint" />
            <mxPoint x="340" y="170" as="targetPoint" />
          </mxGeometry>
        </mxCell>
        <mxCell id="tGWyrXTvTJjovRNQNgG4-6" value="" style="endArrow=none;html=1;rounded=0;" edge="1" parent="1">
          <mxGeometry width="50" height="50" relative="1" as="geometry">
            <mxPoint x="280" y="170" as="sourcePoint" />
            <mxPoint x="310" y="200" as="targetPoint" />
          </mxGeometry>
        </mxCell>
        <mxCell id="tGWyrXTvTJjovRNQNgG4-7" value="" style="endArrow=none;html=1;rounded=0;" edge="1" parent="1">
          <mxGeometry width="50" height="50" relative="1" as="geometry">
            <mxPoint x="310" y="200" as="sourcePoint" />
            <mxPoint x="310" y="170" as="targetPoint" />
          </mxGeometry>
        </mxCell>
        <mxCell id="tGWyrXTvTJjovRNQNgG4-8" value="" style="endArrow=none;html=1;rounded=0;exitX=0.5;exitY=0;exitDx=0;exitDy=0;" edge="1" parent="1">
          <mxGeometry width="50" height="50" relative="1" as="geometry">
            <mxPoint x="505" y="285" as="sourcePoint" />
            <mxPoint x="505" y="200" as="targetPoint" />
          </mxGeometry>
        </mxCell>
        <mxCell id="tGWyrXTvTJjovRNQNgG4-9" value="" style="endArrow=none;html=1;rounded=0;" edge="1" parent="1">
          <mxGeometry width="50" height="50" relative="1" as="geometry">
            <mxPoint x="505" y="200" as="sourcePoint" />
            <mxPoint x="535" y="170" as="targetPoint" />
          </mxGeometry>
        </mxCell>
        <mxCell id="tGWyrXTvTJjovRNQNgG4-10" value="" style="endArrow=none;html=1;rounded=0;" edge="1" parent="1">
          <mxGeometry width="50" height="50" relative="1" as="geometry">
            <mxPoint x="475" y="170" as="sourcePoint" />
            <mxPoint x="505" y="200" as="targetPoint" />
          </mxGeometry>
        </mxCell>
        <mxCell id="tGWyrXTvTJjovRNQNgG4-11" value="" style="endArrow=none;html=1;rounded=0;" edge="1" parent="1">
          <mxGeometry width="50" height="50" relative="1" as="geometry">
            <mxPoint x="505" y="200" as="sourcePoint" />
            <mxPoint x="505" y="170" as="targetPoint" />
          </mxGeometry>
        </mxCell>
        <mxCell id="tGWyrXTvTJjovRNQNgG4-12" style="edgeStyle=orthogonalEdgeStyle;rounded=0;orthogonalLoop=1;jettySize=auto;html=1;exitX=1;exitY=0.5;exitDx=0;exitDy=0;entryX=0;entryY=0.5;entryDx=0;entryDy=0;entryPerimeter=0;" edge="1" parent="1" source="tGWyrXTvTJjovRNQNgG4-1" target="tGWyrXTvTJjovRNQNgG4-3">
          <mxGeometry relative="1" as="geometry" />
        </mxCell>
        <mxCell id="tGWyrXTvTJjovRNQNgG4-14" value="T&lt;sub&gt;x&lt;/sub&gt;" style="text;html=1;align=center;verticalAlign=middle;whiteSpace=wrap;rounded=0;" vertex="1" parent="1">
          <mxGeometry x="230" y="190" width="60" height="30" as="geometry" />
        </mxCell>
        <mxCell id="tGWyrXTvTJjovRNQNgG4-15" value="R&lt;sub&gt;x&lt;/sub&gt;" style="text;html=1;align=center;verticalAlign=middle;whiteSpace=wrap;rounded=0;" vertex="1" parent="1">
          <mxGeometry x="430" y="190" width="60" height="30" as="geometry" />
        </mxCell>
        <mxCell id="tGWyrXTvTJjovRNQNgG4-16" value="Mixer" style="text;html=1;align=center;verticalAlign=middle;whiteSpace=wrap;rounded=0;" vertex="1" parent="1">
          <mxGeometry x="410" y="340" width="60" height="30" as="geometry" />
        </mxCell>
        <mxCell id="tGWyrXTvTJjovRNQNgG4-17" value="Signal processing" style="rounded=0;whiteSpace=wrap;html=1;" vertex="1" parent="1">
          <mxGeometry x="610" y="290" width="120" height="60" as="geometry" />
        </mxCell>
      </root>
    </mxGraphModel>
  </diagram>
</mxfile>
